<?xml version="1.0" encoding="UTF-8"?>
<svg width="26px" height="12px" viewBox="0 0 26 12" version="1.1" xmlns="http://www.w3.org/2000/svg" xmlns:xlink="http://www.w3.org/1999/xlink">
    <!-- Generator: Sketch 64 (93537) - https://sketch.com -->
    <title>Group 3</title>
    <desc>Created with Sketch.</desc>
    <defs>
        <polygon id="path-1" points="-1.19015908e-13 8.82058318e-05 25.9369 8.82058318e-05 25.9369 11.9066022 -1.19015908e-13 11.9066022"></polygon>
    </defs>
    <g id="Mobile" stroke="none" stroke-width="1" fill="none" fill-rule="evenodd">
        <g id="Home" transform="translate(-126.000000, -746.000000)">
            <g id="Group-3" transform="translate(139.000000, 752.000000) scale(-1, 1) translate(-139.000000, -752.000000) translate(126.000000, 746.000000)">
                <mask id="mask-2" fill="white">
                    <use xlink:href="#path-1"></use>
                </mask>
                <g id="Clip-2"></g>
                <path d="M13.3839,5.3549 L13.0319,5.3549 C10.8889,5.3549 9.5529,4.9199 7.9969,3.3199 C7.7709,3.0839 7.4239,3.0369 7.1419,3.1979 C4.9719,4.4429 2.6689,5.1699 0.2879,5.6049 C0.1179,5.6369 -9.99999998e-05,5.7819 -9.99999998e-05,5.9539 C-9.99999998e-05,6.1249 0.1179,6.2689 0.2879,6.2989 C2.6689,6.7359 4.9719,7.4629 7.1419,8.7089 C7.4239,8.8699 7.7709,8.8219 7.9969,8.5869 C9.5529,6.9859 10.8889,6.5509 13.0319,6.5509 L13.3839,6.5509 C12.6039,7.2709 12.2729,8.1349 12.2519,8.9509 C12.2399,9.4939 12.3659,10.0139 12.5829,10.4589 C12.8109,10.9159 13.1419,11.2989 13.5299,11.5569 C14.2329,12.0159 15.2469,12.0769 15.8329,11.4129 C16.0559,11.1659 16.1919,10.8369 16.1919,10.4759 C16.1919,9.6959 15.5579,9.0639 14.7779,9.0639 C14.2679,9.0639 13.8209,9.3339 13.5729,9.7389 C13.4849,9.5029 13.4399,9.2469 13.4449,8.9809 C13.4569,8.4539 13.6789,7.8899 14.2089,7.4079 C14.5099,7.1369 14.8969,6.9249 15.3659,6.7789 C15.9139,6.6069 16.4919,6.5509 17.0659,6.5509 L22.3589,6.5509 C22.6059,7.2739 23.2899,7.7939 24.0989,7.7939 C25.1129,7.7939 25.9369,6.9679 25.9369,5.9539 C25.9369,4.9379 25.1129,4.1149 24.0989,4.1149 C23.2899,4.1149 22.6059,4.6319 22.3589,5.3549 L17.0659,5.3549 C16.4969,5.3549 15.9109,5.2959 15.3659,5.1269 C14.8969,4.9809 14.5099,4.7689 14.2089,4.4969 C13.6789,4.0159 13.4569,3.4539 13.4449,2.9249 C13.4399,2.6609 13.4849,2.4029 13.5729,2.1669 C13.8209,2.5719 14.2679,2.8439 14.7779,2.8439 C15.5579,2.8439 16.1919,2.2099 16.1919,1.4299 C16.1919,1.0699 16.0559,0.7409 15.8329,0.4939 C15.2469,-0.1701 14.2329,-0.1101 13.5299,0.3519 C13.1419,0.6069 12.8109,0.9939 12.5829,1.4479 C12.3659,1.8929 12.2399,2.4129 12.2519,2.9539 C12.2729,3.7709 12.6039,4.6349 13.3839,5.3549" id="Fill-1" fill="#745545" mask="url(#mask-2)"></path>
            </g>
        </g>
    </g>
</svg>